PathFileType	4	(X/Y/Z)	C:\Users\WrightLab\Desktop\Jo\P1_boxCal16.trc
DataRate	CameraRate	NumFrames	NumMarkers	Units	OrigDataRate	OrigDataStartFrame	OrigNumFrames
100.00	100.00	      51	19	mm	100.00	860	      1146
Frame#	Time	Headset_Front			Headset_Back			Headset_Left			Headset_Right			Left_Shoulder			Right_Shoulder			Sternum			C7			Left Elbow			Right Elbow			Left Wrist			Right Wrist			Left ASIS			Right ASIS			S2			Left Knee			Right Knee			Left Ankle			Right Ankle			
		X1	Y1	Z1	X2	Y2	Z2	X3	Y3	Z3	X4	Y4	Z4	X5	Y5	Z5	X6	Y6	Z6	X7	Y7	Z7	X8	Y8	Z8	X9	Y9	Z9	X10	Y10	Z10	X11	Y11	Z11	X12	Y12	Z12	X13	Y13	Z13	X14	Y14	Z14	X15	Y15	Z15	X16	Y16	Z16	X17	Y17	Z17	X18	Y18	Z18	X19	Y19	Z19	

860	8.590	-339.46814	853.18384	2334.63477	-995.12091	847.48090	2333.95239							-823.20331	505.15805	2387.49316	-485.99005	151.07040	2451.91260													-476.44824	506.45941	2413.77051																									
861	8.600				-995.04120	847.10699	2333.37842							-823.20038	505.16077	2387.81494	-486.01334	151.07095	2452.18213													-476.59265	506.21341	2414.24658																									
862	8.610	-338.20224	852.19635	2340.32861	-995.20282	846.92218	2332.95557							-823.25720	505.00262	2387.90942	-486.05307	151.03772	2452.19849													-476.61710	506.27078	2414.41113																									
863	8.620	-337.43616	851.76959	2343.73804	-995.48236	846.89752	2332.64111							-823.16290	505.00146	2388.10425	-486.03156	150.97879	2452.19287													-476.76361	506.24496	2414.71069																									
864	8.630				-995.81708	846.89716	2332.35767							-823.02960	504.89359	2388.16138	-486.12756	150.98944	2452.26367													-476.60092	506.24875	2414.69995	-1190.49536	-441.12247	406.64679																						
865	8.640				-996.38702	847.05469	2332.29736							-823.10541	504.88708	2388.31909	-486.09436	150.91110	2452.23047													-476.43909	506.18561	2414.94434	-1191.77197	-443.21423	408.02585																						
866	8.650				-996.73065	847.30865	2332.34668							-822.84875	504.90125	2388.29663	-486.08212	150.94696	2452.27368													-476.52463	506.05695	2415.43896	-1193.19897	-445.42468	409.50488																						
867	8.660				-997.09802	847.41705	2332.02295							-822.83649	504.81537	2388.32861	-486.09866	150.98643	2452.31494													-475.95660	506.24695	2416.72510	-1195.27368	-448.23013	411.45352																						
868	8.670				-997.57813	847.82867	2331.78296							-822.65436	504.91016	2388.46753	-486.13647	150.98294	2452.35938													-475.38525	505.78122	2419.21997	-1197.94507	-451.33850	413.71277																						
869	8.680				-998.15796	848.22766	2330.96924							-822.56049	504.76056	2388.42651	-486.15286	150.88177	2452.58057													-474.75876	505.47122	2420.13550	-1199.69189	-454.29208	415.65054																						
870	8.690				-998.64618	848.53497	2329.67725							-822.45514	504.80276	2388.43188	-486.20599	150.84431	2452.60449													-474.84256	505.37494	2420.64404	-1201.97290	-457.22998	417.72348																						
871	8.700	-331.89349	847.54376	2374.20435	-999.37836	849.28485	2329.03101							-822.29919	504.78012	2388.39673	-486.32858	150.75389	2452.80835													-474.68170	505.45114	2420.61450																									
872	8.710	-330.87314	847.30377	2379.37061	-1000.66010	849.89966	2328.61279							-822.07501	504.69394	2388.40771	-486.46039	151.11606	2451.84155													-474.58185	505.47058	2420.58228																									
873	8.720	-330.19885	846.21265	2382.99048	-1001.48352	850.26160	2328.20605							-821.84906	504.46564	2388.28247	-486.14951	150.53316	2452.38086													-474.38083	505.47348	2420.55493																									
874	8.730	-329.41251	846.24005	2388.26392	-1002.31097	850.51923	2327.08008							-821.71246	504.51178	2388.38672	-486.50540	150.95726	2452.07959													-474.25934	505.40649	2420.81421																									
875	8.740	-328.24585	846.17834	2393.01904	-1003.20673	851.05963	2326.52686							-821.46680	504.44406	2388.26587	-486.50415	150.95232	2452.07666													-474.09421	505.51089	2420.79688																									
876	8.750	-327.58670	845.40594	2397.19897	-1003.89539	851.58844	2325.60669							-821.42755	504.46094	2388.25073	-486.55875	151.04285	2452.14355													-474.05664	505.38995	2421.00977																									
877	8.760	-326.59906	845.49622	2401.89771	-1005.10626	852.56732	2324.63232							-821.35229	504.44916	2388.23828	-486.61325	150.95473	2452.12158													-474.04541	505.40195	2421.01099																									
878	8.770	-326.31552	845.93542	2407.73096	-1006.23541	853.42261	2323.22412							-821.28058	504.39371	2388.30469	-486.51312	150.95244	2452.08032													-473.99872	505.40161	2421.22485																									
879	8.780	-325.56189	846.12079	2412.36060	-1007.11890	854.15308	2322.52100							-821.24786	504.39679	2388.27759	-486.53815	150.92239	2452.07544													-474.01160	505.32581	2421.42456																									
880	8.790	-324.57663	846.23181	2416.98193	-1007.87756	854.59430	2321.95581							-821.14746	504.41022	2388.23096	-486.13837	150.14343	2453.30347													-473.78775	505.59653	2422.31372																									
881	8.800	-323.77914	846.00140	2421.17822	-1008.51514	855.49121	2320.41187							-821.15692	504.41049	2388.22021	-486.15930	150.09555	2453.28735													-473.75943	505.61826	2422.31250																									
882	8.810	-323.08392	846.42584	2425.97119	-1009.28040	856.17450	2318.50830							-821.14661	504.41791	2388.24170	-486.56070	150.95535	2452.10083													-473.73920	505.55289	2422.75269																									
883	8.820	-322.38492	846.10565	2430.41064	-1010.61194	856.96454	2317.69238							-820.92023	504.36929	2388.18848	-486.61127	150.38773	2453.41675													-473.82385	505.48767	2423.03613																									
884	8.830	-322.28134	847.17267	2435.54395	-1011.53870	857.64441	2317.10034							-821.08063	504.44101	2388.53394	-486.35272	149.92722	2453.83569													-473.31793	505.56946	2424.43921																									
885	8.840	-321.27719	847.34985	2439.46558										-821.00385	504.45227	2388.57129	-486.83017	150.43294	2453.85962													-473.29333	505.66934	2424.47852																									
886	8.850	-320.89307	847.19672	2443.65430	-1012.51953	858.89514	2314.18213							-821.04730	504.45511	2388.55859	-486.80490	150.32457	2453.79980													-473.33755	505.58011	2424.72778																									
887	8.860	-319.80396	847.28943	2447.62720	-1012.76312	859.60156	2312.47729							-820.90637	504.41129	2388.61255	-486.81024	150.39064	2453.86646													-473.38269	505.58786	2424.87598																									
888	8.870	-319.42010	847.79077	2451.09985	-1013.20862	859.96265	2311.41846							-820.92249	504.51065	2388.83838	-486.80600	150.36926	2453.86450													-473.35825	505.64780	2424.89551																									
889	8.880	-319.59827	848.40289	2456.01709	-1013.63342	860.23615	2310.04321							-820.94080	504.56790	2388.96216	-486.88159	150.29778	2453.85278													-473.33441	505.70731	2424.91504																									
890	8.890	-319.46777	848.55450	2459.34912	-1014.17328	860.73871	2308.90137							-820.91766	504.50314	2389.03711	-486.86349	150.27249	2453.85083													-473.39890	505.64975	2425.16431																									
891	8.900	-319.16019	849.03217	2462.68530	-1014.42065	861.17633	2307.12549							-820.78412	504.60632	2389.22290	-486.89542	150.28050	2453.86597													-472.97708	506.07431	2426.52637																									
892	8.910	-318.73465	848.94727	2465.05200	-1014.48621	861.52704	2305.45532							-820.83264	504.47919	2389.23096	-486.54807	149.93623	2454.08105													-472.97015	506.10486	2426.53857																									
893	8.920	-319.53357	849.26233	2468.13892	-1014.54602	861.71014	2304.65430							-820.85992	504.66449	2389.65356	-486.90585	150.31996	2453.96045													-472.92178	506.08856	2426.51001																									
894	8.930	-319.60675	849.37579	2470.10571	-1014.55322	861.72601	2303.44214							-820.78351	504.74200	2389.82227	-487.19556	150.06076	2454.48267													-472.92413	506.13861	2426.53589																									
895	8.940	-319.51678	849.38654	2472.07422	-1014.39502	861.92249	2302.25391							-820.79071	504.61807	2389.86450	-486.96045	150.43814	2455.24561													-472.82092	506.03543	2426.78467																									
896	8.950	-319.57822	849.27228	2473.65845	-1014.09851	861.98340	2300.35571							-820.81305	504.72797	2390.10864	-487.02896	150.47862	2455.32031													-472.80096	506.03766	2426.77759																									
897	8.960	-320.09363	849.53046	2474.98462	-1013.58722	862.07068	2298.64087							-820.82440	504.83334	2390.29834	-486.48245	150.06120	2455.98901													-472.81348	506.12344	2426.82520																									
898	8.970	-320.80588	849.41095	2475.89990	-1012.99957	861.92731	2296.99438							-820.79547	504.78757	2390.36890	-487.05106	150.39711	2455.34058													-472.84674	506.05692	2426.80615																									
899	8.980	-321.32407	848.79462	2476.53125	-1012.17334	861.61401	2295.49512							-820.77936	504.77682	2390.57031	-486.64908	149.89166	2456.24829													-472.84662	506.17371	2426.86426																									
900	8.990	-321.59924	847.92596	2476.18384										-820.86621	504.71381	2390.55664	-486.55463	149.93285	2456.25415													-472.62390	506.63541	2427.78784																									
901	9.000	-322.23199	847.28839	2475.49414	-1010.81244	861.00812	2293.05347							-820.87872	504.80945	2390.79248	-486.60495	149.89940	2456.26123													-472.62787	506.69025	2427.81665																									
902	9.010	-322.67090	846.63635	2474.52612	-1009.80444	860.69055	2291.54053							-820.80060	504.76056	2390.79712	-486.55716	149.95796	2456.25659													-472.78360	506.60123	2428.08862																									
903	9.020	-322.85364	846.05786	2473.41895	-1008.54608	860.28162	2289.71558							-820.97699	504.82309	2391.02148	-486.63013	149.87602	2456.25098													-472.79468	506.46384	2428.29614																									
904	9.030	-322.87122	846.07990	2471.33618	-1007.12634	859.74426	2287.63013							-820.97717	504.88968	2391.15161	-486.60995	149.96082	2456.31421													-472.96344	506.46219	2428.52710																									
905	9.040	-322.94446	845.35223	2468.65698	-1005.78418	858.92712	2285.54395							-821.03131	504.79596	2391.02783	-486.57642	149.94487	2456.29028													-473.00226	506.49991	2428.43408																									
906	9.050	-323.01471	845.19501	2465.35913	-1004.33655	857.81256	2283.36572							-821.03839	504.91068	2391.19800	-486.56561	149.89690	2456.26636													-473.31522	506.20840	2429.18652																									
907	9.060	-323.56448	845.35901	2462.71191	-1002.93005	856.82104	2281.95508							-821.11884	504.86768	2391.22998	-486.65359	149.94041	2456.33911													-473.32626	506.24152	2429.20752																									
908	9.070	-323.91840	845.05176	2458.39136	-1001.20135	855.38995	2280.10376							-821.07532	504.79932	2391.19946	-486.57303	149.89093	2456.30615													-473.39273	506.28030	2429.25464																									
909	9.080	-324.26260	845.32947	2454.13794	-999.26404	853.77386	2277.90698							-821.26709	504.98441	2391.46533	-486.67316	149.83823	2456.57617													-473.47772	506.30670	2429.19580																									
910	9.090	-324.53442	844.00006	2449.18091	-997.42126	852.52393	2276.02515							-821.27301	504.85480	2391.31689	-486.68658	149.84422	2456.61865													-473.89478	506.04919	2430.24512																									
